<svg width="1920" height="1332" viewBox="0 0 1920 1332" fill="none" xmlns="http://www.w3.org/2000/svg">
<g id="Frame 1">
<path id="ghokuhei" d="M1087.11 262C1097.28 262.377 1112.58 261.354 1122.75 262.5C1125.92 262.5 1128.8 263.5 1132 263.5C1136.59 263.5 1141.5 264.038 1146.03 263.472C1149.89 262.989 1153.57 259.5 1157.28 259.5C1162.82 259.5 1168.59 259.389 1172.11 254.778L1172.14 254.735C1174.11 252.162 1176.5 249.039 1176.5 245.75C1176.5 242.446 1175.22 237.497 1173 235C1172.1 233.991 1171.87 232.43 1171.11 231.389C1170.64 230.74 1170.55 229.668 1170 228.889C1169.04 227.531 1167.92 226.301 1166.89 225C1164.99 222.607 1160.52 223.252 1157.81 222.75C1155.9 222.397 1153.67 221.5 1151.75 221.5C1149.92 221.5 1147.21 219.956 1149.5 218.611C1150.62 217.951 1151.15 216.324 1152.5 215.611C1154.85 214.375 1157.26 213.207 1159.75 212.25C1161.14 211.715 1164.61 210.744 1165.03 209.278C1165.93 206.106 1169 204.761 1169 201.25C1169 196.923 1166.13 193.211 1164.22 189.5C1162.61 186.372 1160.12 185.095 1157.39 183.111C1154.84 181.255 1151.01 180.094 1148.22 178.5C1146.19 177.337 1145.4 174.212 1143.28 173C1141.88 172.203 1140.38 170.435 1139.22 169.278C1137.06 167.118 1132.15 167.016 1129.5 165.611C1125.32 163.398 1122.27 162.5 1117.28 162.5C1115.41 162.5 1113.76 162.815 1112 163C1110.16 163.193 1108.88 164.396 1107 164.5C1104.27 164.652 1101.94 167.695 1099.5 168C1098.06 168.179 1095.64 169.656 1094.22 170.278C1090.14 172.076 1086.36 174.419 1082.28 176.25C1075.75 179.175 1072.22 187.272 1067.83 192.556C1063.79 197.423 1059.77 204.457 1064.28 210.25C1065.53 211.858 1067.4 212.482 1069.22 213.222C1070.56 213.767 1074.1 214.575 1074.89 216C1075.72 217.502 1074.5 219.94 1074.5 221.5C1074.5 225.94 1070.96 227.661 1067.5 229.778C1065.24 231.161 1063.4 233.03 1061.61 234.889C1060.12 236.439 1059.63 238.231 1058.39 239.889C1057.51 241.058 1057.49 246.77 1058.61 247.889C1059.5 248.778 1059.56 249.814 1060.31 250.722C1061.09 251.676 1062.5 252.027 1063.25 253.028C1064.12 254.189 1065.65 255.255 1066.81 256.028C1068.3 257.027 1069.65 258.814 1071.19 259.5C1072.33 260.003 1073.62 259.721 1074.78 260.25C1076.64 261.096 1078.99 261 1081 261C1083.14 261 1085.06 261.924 1087.11 262Z" fill="#C4C4C4" fill-opacity="0.01"/>
<path id="gnanpi" d="M1341.5 339C1340.9 339.192 1340.29 339.364 1339.68 339.516C1332.71 341.249 1325.14 340.5 1318 340.5C1316.15 340.5 1314 341.271 1312.28 340.889C1309.4 340.249 1306.2 340 1303.25 340C1299.63 340 1293.25 339.423 1291.11 336C1290.17 334.489 1288.49 333.704 1287.22 332.5C1285.72 331.074 1285.07 328.841 1283.72 327.25C1280.8 323.799 1279.5 320.351 1279.5 316C1279.5 311.613 1286.66 308.783 1289.78 307C1293.41 304.922 1296.03 302.38 1299.11 299.611C1302.36 296.683 1300.07 291.905 1296.22 291C1294.6 290.619 1291.36 290.144 1290.28 288.75C1289.18 287.341 1288.59 284.634 1287.78 283C1287.07 281.583 1287 278.38 1287 276.75C1287 274.493 1287.66 273.212 1288.39 271.111C1289.97 266.54 1294.03 264.022 1298.31 262.722C1304.36 260.88 1308.24 256.142 1314.11 254.111C1317.26 253.021 1321.59 250.164 1323.53 247.25C1324.25 246.171 1325.4 246.385 1326.25 245.722C1327.49 244.759 1328.45 243.687 1329.47 242.5C1330.82 240.923 1331.65 239.073 1333.11 237.611C1335.23 235.495 1342.2 237.013 1344.72 237.472C1345.75 237.66 1347.42 239.771 1348 240.778C1349.3 243.05 1353.31 245.011 1355.89 245.611C1363.93 247.481 1371.43 252.806 1377.75 257.722C1379.15 258.811 1380.34 259.87 1381.75 261C1382.97 261.973 1384.78 262.5 1385.78 263.889C1387.05 265.66 1388.75 266.565 1389.61 268.5C1390.39 270.242 1390.33 272.595 1391.25 274.25C1392.02 275.63 1391 277.714 1391 279.25C1391 281.351 1390.16 283.272 1388.39 284.5C1384.53 287.174 1381.55 290.503 1378.28 293.778C1376.98 295.076 1375.64 295.639 1374.25 296.722C1373.62 297.215 1368.66 298.346 1371.89 298.5C1374.04 298.602 1375.8 299.5 1378.11 299.5C1380.5 299.5 1383.37 299.099 1385.72 299.528C1389.89 300.286 1392.92 305.085 1393.97 308.778C1394.4 310.286 1395.19 311.922 1395.75 313.5C1396.24 314.866 1396.79 317.858 1397.61 318.889C1399.92 321.772 1397.72 326.821 1394.78 328.5C1393.39 329.292 1392.54 331.074 1390.75 331.472C1388.43 331.989 1387.01 332.827 1385 333.889C1377.07 338.089 1369.05 338.5 1360 338.5C1358.14 338.5 1356.4 339 1354.5 339C1352.49 339 1351.29 340 1349.25 340C1347.07 340 1343.64 339 1341.5 339Z" fill="#C4C4C4" fill-opacity="0.01"/>
<path id="gzyoutou" d="M951.75 526H956.5C965.014 526 972.924 525 981.444 525C983.682 525 986.363 525.427 988.528 524.75C990.581 524.108 992.858 524.991 994.889 524.389C996.789 523.826 999.108 523.105 1001 523C1002.95 522.892 1004.4 521.481 1006.11 520.889C1008.65 520.01 1011.18 518.698 1013.72 517.972C1016.01 517.319 1021 512.524 1021 510.25V504.75C1021 502.823 1019.94 501.603 1019.53 499.75C1018.84 496.655 1014.6 493.497 1012.75 491.028C1011.33 489.135 1009.29 487.885 1007.25 486.75C1004.81 485.392 1001.94 486.291 999.278 485.889C996.461 485.464 990.513 485.304 994 482C995.893 480.207 998.435 479.147 1000.39 477.389C1002.32 475.652 1005.15 473.812 1007.44 472.667C1008.72 472.028 1014.59 470.458 1014.97 468.75C1015.16 467.906 1015 466.864 1015 466C1015 461.166 1014.5 456.179 1014.5 451.5C1014.5 449.522 1014.7 446.817 1013.89 445C1013.62 444.387 1013.71 442.868 1013.25 442.5C1012.82 442.158 1011.76 441.17 1011.5 440.722C1009.83 437.8 1005.7 436.959 1003.25 435C1001.52 433.618 999.211 434.339 997.25 433.25C995.703 432.39 994.82 431.32 993.5 430C990.863 427.363 987.412 425.41 984.611 422.889C980.617 419.294 973.785 418.767 968.75 417.306C965.551 416.377 961.342 417.147 958.278 418.25C954.753 419.519 951.024 419.991 947.5 421.25C943.032 422.846 939.238 427.475 934.75 428.472C932.978 428.866 932.048 430.628 930.25 431.028C928.665 431.38 926.642 433.374 925.222 434.278C923.049 435.661 915.652 434.762 914.5 436.778C913.521 438.491 911.808 440.028 910.5 441.5C906.999 445.438 907 450.183 907 455.244L907 455.389C907 459.479 906.673 463.012 908.611 466.5C910.674 470.213 914.155 472.728 917.111 475.389C918.656 476.78 921.322 478 923.389 478C924.798 478 928.281 479.04 929.222 480.25C930.256 481.579 929.371 484.162 928.5 485.25C927.104 486.994 923.616 484.855 922.5 486.25C920.011 489.361 913.563 489.687 910.278 491.778C908.138 493.14 906.518 495.982 904.722 497.778C902.704 499.796 902 502.551 902 505.306C902 509.013 903.795 514.276 906.389 516.611C908.84 518.818 912.345 522.716 915.889 523C919.523 523.291 923.578 523.5 927.472 523.5C929.875 523.5 931.955 523.962 934.228 524.467L934.25 524.472C937.173 525.122 940.747 524.5 943.75 524.5C946.353 524.5 949.132 526 951.75 526Z" fill="#C4C4C4" fill-opacity="0.01"/>
<path id="gsinnyou" d="M748.389 310.5C754.321 310.5 760.091 311.273 766 310.786C769.606 310.786 771.564 311 775.25 311H779.75C781.999 311 783.974 310 786.194 310C788.035 310 790.407 308.882 792.25 308.472C794.471 307.979 796.71 308.185 798.972 307.75C803.119 306.952 807.761 307.5 811.972 307.5C815.033 307.5 816.238 305.888 817.5 303.111C818.624 300.639 820.605 299.004 821.611 296.389C822.234 294.77 823.571 293.747 823.5 291.889C823.446 290.475 822.415 287.586 821.5 286.5C820.595 285.425 819.408 282.688 818.889 281.389C818.187 279.635 816.438 277.083 815.111 275.889C812.86 273.863 806.196 269.554 803.111 271.611C800.88 273.098 793.399 271.334 791.778 269.25C790.803 267.997 792.952 266.048 793.75 265.25C795.03 263.97 797.465 262.88 798.972 261.75C800.411 260.671 801.178 258.914 802.778 258C806.946 255.618 813.341 256.082 812.472 250C811.974 246.514 811.5 243.621 811.5 239.972C811.5 234.284 808.238 233.307 803.472 231.222C801.413 230.321 799.925 228.685 798 227.722C795.803 226.624 793.571 225.082 791.5 223.75C787.226 221.003 783.451 218.988 779.528 215.556C777.757 214.006 775.619 212.732 773.75 211.278C772.581 210.369 770.937 209.921 770 208.75C767.492 205.615 766.203 206.294 762.5 206.5C759.72 206.654 756.499 209.107 754.5 211C751.422 213.916 748.068 217.513 744.5 219.611C739.788 222.383 735.382 227.159 730.111 229.111C724.933 231.029 718.096 232.837 714.528 237C711.627 240.384 711.5 243.089 711.5 247.528C711.5 255.565 718.735 263.606 726 266.028C727.336 266.473 731.592 269.577 728 270C726.399 270.188 724.61 271.664 723 272.111C720.217 272.884 717.531 274.199 714.833 275.222C712.96 275.933 711.911 277.697 710.111 278.389C708.459 279.024 706.5 280.747 706.5 282.5V292.5C706.5 296.632 707.829 298.498 709.889 302C711.548 304.821 716.056 307.053 719 308.611C722.959 310.707 727.669 310.5 732.111 310.5H748.389Z" fill="#C4C4C4" fill-opacity="0.01"/>
<path id="gantei" d="M635.5 567.5C646.84 567.5 657.98 568.982 669.299 569C670.856 568.496 672.599 567.757 673.5 567.5C675.126 567.035 673.596 567 675.5 567C678.978 567 683.386 567.72 686.75 566.972C692.164 565.769 698.022 566.2 703.611 566C705.984 565.915 709.721 565.551 711.722 564.278C715.117 562.118 719.798 560.702 722.694 557.806C726.09 554.41 726 551.735 726 547.25C726 545.068 725.72 543.09 725.5 541C725.109 537.284 719.649 533.904 716.889 532C713.369 529.573 709.613 527.5 705.194 527.5C702.355 527.5 700.098 527.482 697.389 526.611C696.01 526.168 692.374 526.441 691.611 525C690.754 523.382 695.688 519.34 697 518.611C698.606 517.719 700.027 516.528 701.778 516.028C704.258 515.319 706.759 515.101 709.222 514.444C711.839 513.747 715.699 508.559 716 506C716.222 504.112 717.5 502.717 717.5 500.75C717.5 497.251 715.552 495.618 713.972 492.722C713.177 491.265 710.782 490.19 709.611 488.889C708.45 487.599 708.223 485.978 706.722 484.75C703.63 482.22 699.311 481.243 695.778 479.5C692.915 478.088 689.022 476.967 686.528 474.972C685.471 474.127 684.756 473.169 683.5 472.611C682.028 471.957 679.826 472.378 678.472 471.25C677.626 470.545 674.663 469.332 673.5 469C671.452 468.415 670.521 467.5 668.111 467.5C666.297 467.5 663.841 468.117 662.111 468.611C660.912 468.954 659.721 469.102 658.5 469.389C657.323 469.666 657.201 470.144 656.222 470.5C654.387 471.167 652.723 472.254 650.889 472.889C647.748 473.976 642.346 475.378 640.75 478.25C639.632 480.262 638.171 482.607 636.5 484.278C634.384 486.394 631.757 486.679 629.278 488.222C625.628 490.494 621.353 491.081 619.5 495.25C618.591 497.296 618.119 500.745 618 503C617.9 504.897 617.5 506.736 617.5 508.75C617.5 512.083 619.024 514.709 621.611 516.5C624.758 518.679 627.144 521.724 630.972 523C632.436 523.488 640.988 527.559 639 528.611C636.1 530.146 631.743 530.329 628.5 530.5C625.641 530.65 616.065 531.228 614.5 534.75C613.571 536.841 610.889 538.825 609.611 540.889C608.383 542.872 608 544.19 608 546.5C608 550.196 610.308 555.177 612.778 558C613.859 559.236 614.626 561.803 616 562.611C618.361 564 621.033 564.489 623.5 565.722C626.752 567.348 631.886 567.5 635.5 567.5Z" fill="#C4C4C4" fill-opacity="0.01"/>
<path id="gbui" d="M437 341C448.604 341 461.98 340.844 473.5 341.118C476.001 341.266 478.456 341.5 481 341.5C484.841 341.5 488.448 341 492.222 341C494.019 341 496.875 341.573 498.5 340.889C499.846 340.322 502.387 339 503.75 339C506.06 339 508.508 338 511 338C512.397 338 515.216 337.959 516.5 337.389C518.483 336.508 520.336 335.351 522.25 334.5C523.802 333.81 525.145 330.355 526.389 329.111C528.953 326.547 529.973 323.031 529.028 319.722C527.276 313.589 524.671 307.671 520.111 303.111C517.211 300.211 513.027 300.209 509.278 299.528C507.364 299.18 497.988 300.45 501.389 297.389C502.871 296.055 504.966 295.184 506.25 293.472C507.188 292.221 507.937 290.447 508.889 289.389C510.859 287.2 513.388 286.372 516.222 285.5C521.122 283.992 520.5 279.398 520.5 274.778C520.5 273.222 521.148 270.041 520.111 268.889C518.964 267.614 518.067 266.161 516.889 264.889C515.765 263.675 515.27 262.095 513.75 261.25C512.857 260.754 512.017 260.4 511.222 259.75C508.927 257.872 506.142 256.71 503.5 255.389C501.808 254.543 499.585 253.585 498.25 252.25C497.328 251.328 495.878 249.661 494.722 249C491.246 247.014 488.329 244.069 485 242.111C482.48 240.629 479.821 238.527 478 236.25C475.489 233.111 470.268 236.406 467.806 237.5C466.351 238.147 464.517 240.266 463.111 241.278C461.895 242.153 460.675 243.047 459.611 244.111C458.375 245.347 457.156 246.629 455.75 247.722C454.157 248.961 451.999 249.224 450.611 250.611C449.618 251.604 447.881 252.175 446.778 253.278C445.59 254.466 444.177 255.613 442.75 256.722C441.692 257.545 440.096 257.963 438.889 258.5C436.074 259.751 433.737 261.329 430.722 262.278C429.525 262.655 426.733 262.495 426 263.778C425.628 264.428 425.343 265.026 424.75 265.5C422.362 267.411 421 272.483 421 275.389C421 277.797 420.185 284.348 422.25 286C425.292 288.434 428.07 290.988 432 292.111C434.591 292.851 436 293.012 436 295.75C436 297.485 435.111 299.306 433.5 300.111C431.221 301.251 429.459 302.565 427.028 303.5C425.44 304.111 424.633 305.324 423.222 306.222C422.19 306.879 420.735 307.012 419.75 307.778C418.138 309.031 417.313 311.275 415.611 312.5C413.85 313.768 412.5 314.355 412.5 316.889C412.5 321.084 413.728 324.61 415.75 328.25C416.516 329.628 417.937 331.304 419 332.5C420.144 333.786 420.575 335.775 421.722 337.25C425.017 341.486 432.246 341 437 341Z" fill="#C4C4C4" fill-opacity="0.01"/>
<path id="gheigen" d="M1289.75 558C1296.6 558 1301.73 559.628 1308.5 558.5C1311.37 558.5 1314.26 558 1317.25 558H1322.89C1324.35 558 1325.85 558.783 1327.25 558.472C1331.16 557.603 1335.28 557.222 1339.28 558.111C1343.62 559.075 1345.75 557.487 1349.5 555.611C1352.45 554.138 1354.88 551.847 1357.75 550.25C1358.49 549.84 1360.41 548.218 1360.5 547.5C1360.65 546.262 1362.43 545.773 1363 544.778C1363.6 543.719 1365.08 543.285 1365.89 542.389C1366.86 541.308 1366.76 538.546 1366.47 537.25C1366.1 535.595 1365.15 534.016 1364.39 532.5C1363.64 530.997 1363.52 529.134 1362.75 527.75C1360.67 524.008 1356.94 520.078 1352.78 518.889C1350.61 518.27 1348.96 517 1346.69 517C1344.36 517 1341.81 517.252 1339.5 516.889C1337.63 516.595 1335.56 516.65 1333.78 516C1332.79 515.64 1332.94 514.553 1334 514.5C1336.28 514.386 1338 514.141 1339.75 512.778C1341.86 511.133 1344.02 509.304 1346.22 507.389C1348.64 505.288 1351.23 503.327 1354.22 502.472C1356.93 501.697 1357.02 494.554 1356.11 492.5C1354.63 489.171 1355.98 483.526 1353.61 480.889C1350.12 477.011 1345.78 474.047 1341 471.611C1338.6 470.389 1336.18 469.558 1333.81 468.278C1331.7 467.146 1329.1 466.798 1327.11 465.5C1323.65 463.24 1321.29 461.551 1318.72 458.25C1315.66 454.313 1310.37 455 1306.06 455C1298.9 455 1294.04 461.788 1288.72 465.889C1282.93 470.36 1277.58 475.5 1269.92 475.5C1266.06 475.5 1263.73 475.821 1261.39 479C1260.05 480.828 1258.5 483.405 1258.5 485.75C1258.5 490.154 1257.48 494.775 1258.47 499.25C1259.03 501.743 1262.14 507.948 1264.75 508.528L1264.84 508.547C1267.25 509.083 1274.65 510.727 1274.5 513.5C1274.45 514.325 1272.83 516.454 1272.22 516.972C1271.43 517.651 1270.21 517.575 1269.28 518C1268.07 518.554 1266.64 519.569 1265.39 519.889C1257.95 521.793 1243.5 530.465 1250.72 539.75C1251.53 540.793 1252.56 544.09 1253.28 544.5C1254.93 545.447 1254.25 547.703 1255.11 548.889C1256.09 550.232 1257.29 551.438 1258.75 552.25C1260.81 553.396 1264.16 552.404 1266.5 553.389C1268.13 554.075 1268.49 555.46 1269.78 556.278C1271.12 557.13 1272.23 556.958 1273.78 557C1275.11 557.036 1276.21 557.935 1277.5 558C1281.57 558.203 1285.68 558 1289.75 558Z" fill="#C4C4C4" fill-opacity="0.01"/>
<path id="ghokkai" d="M1526.28 693.472C1533.09 694.381 1540.13 694 1547 694C1548.38 694.769 1554.94 695 1556.5 695H1560.28C1561.87 695 1563.13 694 1564.72 694C1567.2 694 1571.72 694.072 1574 693.111C1575.54 692.464 1578.55 692.5 1580.25 692.5C1582.37 692.5 1584.43 691.115 1586.5 691C1590.85 690.758 1595.64 687.144 1599.5 685.111C1602.35 683.611 1607.3 680.011 1607.5 676.5C1607.6 674.73 1606.5 673.115 1606.5 671.5C1606.5 670.189 1605.72 667.147 1604.89 666.111C1602.91 663.637 1599.05 662.066 1597.53 659.278C1596.18 656.81 1593.51 657.095 1591.61 655.389C1590.11 654.038 1586.41 654.432 1584.5 653.75C1582.78 653.136 1580.57 653.5 1578.75 653.5C1576.78 653.5 1574.81 653.071 1573.11 652C1570.37 650.272 1572.77 649.23 1574.5 647.5C1578.58 643.421 1585.19 643.313 1589.25 639.25C1591.63 636.866 1596.5 634.668 1596.5 630.75C1596.5 627.912 1596.68 621.063 1594 619.389C1590.65 617.293 1587.54 614.719 1584.28 612.389C1582.18 610.893 1579.8 610.011 1577.83 608.306C1577.22 607.777 1576.37 606.868 1575.72 606.5C1574.14 605.594 1572.99 603.937 1571.5 603.111C1569.87 602.203 1567.46 601.45 1566.5 599.778C1565.93 598.784 1562.32 597.383 1561.22 596.611C1560.06 595.797 1558.56 595.497 1557.5 594.5C1554.83 591.974 1550.49 589 1546.75 589C1545 589 1543.3 590 1541.5 590C1539.31 590 1538.77 591.92 1537.03 592.5C1535.14 593.13 1533.83 595.198 1532 596.111C1530.16 597.03 1528.18 598.604 1526.47 599.778C1524.79 600.936 1522.8 601.123 1521.39 602.389C1520.23 603.433 1517.9 604.391 1516.47 605.222C1513.66 606.863 1510.4 607.595 1508 610C1506.59 611.41 1504.2 613.096 1502.25 613.528C1498.05 614.462 1495.21 617.945 1493.75 621.75C1491.71 627.061 1491.55 630.517 1494.75 635.5C1497.09 639.133 1499.11 641.658 1503.25 643.5C1505.24 644.385 1506.9 645.557 1508.5 647C1510.68 648.965 1513.61 648.547 1516 649.611C1517.13 650.112 1521.9 650.54 1520.22 652.694C1519.48 653.649 1516.14 654.437 1515 654.5C1512.69 654.629 1510.52 654 1508.22 654C1505.44 654 1502.59 654.5 1500 654.5C1496 654.5 1490.69 657.813 1488 660.5C1484.65 663.855 1484.15 669.358 1485.5 673.75C1487.08 678.884 1492.88 682.251 1495.78 686.472C1499.69 692.157 1506.09 691.5 1512.25 691.5C1516.96 691.5 1521.68 692.86 1526.28 693.472Z" fill="#C4C4C4" fill-opacity="0.01"/>
<path id="gkyoshou" d="M1187.39 745C1193.24 745 1198.77 746.5 1204.5 746.5C1212.85 746.5 1219.22 746.775 1227.5 747.528C1233.83 748.103 1239.81 748.243 1246.03 747C1251.08 745.99 1256.36 742.188 1260.75 739.75C1267.76 735.856 1265.26 723.96 1262.25 717.944C1259.36 712.159 1253.56 708.43 1247.25 707.028C1245.54 706.647 1234.18 705.769 1237 702.25C1237.54 701.581 1239.04 701.048 1239.81 700.75C1242.26 699.791 1244.32 698.203 1246.75 697.25C1248.31 696.638 1251.02 694.484 1251.89 693C1252.9 691.282 1256.43 689.608 1256.97 687.722C1257.46 686.027 1257.5 684.394 1257.5 682.5C1257.5 678.701 1257.23 674.83 1257 671C1256.88 668.926 1253.25 666.751 1251.97 665.472C1250.29 663.788 1248.54 662.087 1246.5 660.889C1243.27 658.991 1240.46 656.843 1237 655.111C1235.35 654.288 1234.34 652.309 1232.72 651.278C1230.63 649.947 1228.63 648.457 1226.61 647C1221.91 643.614 1217.6 639.724 1212.5 636.889C1207.35 634.027 1200.81 635 1195 635C1192.51 635 1191.13 637.327 1188.89 637.5C1186.78 637.662 1180.48 640.4 1179 642.25C1178.59 642.757 1177.34 643 1176.72 643.528C1176.14 644.03 1175.51 644.644 1175 645.222C1172.98 647.499 1171.22 650.2 1168.78 652.194C1164.92 655.352 1159.23 654.208 1155.22 656.5C1152.01 658.337 1150.38 661.478 1148.22 664.25C1145.64 667.568 1145 669.744 1145 674.028C1145 675.632 1144.63 680.582 1145.61 681.889C1146.92 683.634 1148.61 686.182 1149.5 688.194C1149.99 689.288 1150.97 691.48 1152 692.111C1154.23 693.471 1156.68 695.901 1159.25 696.472C1163.62 697.443 1167.51 701.116 1172.22 701.972C1176.11 702.679 1175.72 708 1171.5 708C1169.62 708 1168.05 708.023 1166.28 708.528C1161.93 709.77 1156.64 710.15 1152.61 712.389C1149.51 714.114 1146.81 713.833 1145.22 717.472C1144.34 719.487 1144 720.187 1144 722.5C1144 727.211 1145.93 731.682 1148.5 735.611C1150.67 738.93 1153.64 745.5 1158 745.5C1163.39 745.5 1168.57 745 1174 745H1187.39Z" fill="#C4C4C4" fill-opacity="0.01"/>
<path id="grakuyou" d="M936.5 814C943.926 814 951.791 815.742 959.158 816.873C961.952 816.725 964.712 816.5 967.611 816.5C969.628 816.5 971.725 816 973.5 816C976.465 816 979.1 815 982 815C983.134 815 983.758 814.037 985 814C986.664 813.951 988.336 814 990 814C992.6 814 994.963 813.5 997.5 813.5C999.718 813.5 1003.54 813.622 1005.39 812.389C1007.41 811.044 1009.23 808.877 1011 807C1012.85 805.041 1014.62 802.99 1016.5 801C1017.93 799.487 1017.5 797.486 1017.5 795.5C1017.5 791.765 1014.22 785.496 1011.61 782.889C1009.81 781.088 1007.94 779.697 1005.5 778.611C1004.04 777.961 1002.46 777.569 1001 776.778C1000.5 776.507 998.358 774.182 1000 774C1003.78 773.58 1007.73 773.33 1011.39 772.111C1012.76 771.653 1015.14 767.636 1016.22 766.25C1017.75 764.286 1018.4 763.384 1019.25 761C1019.91 759.15 1020 756.692 1020 754.722C1020 750.072 1018.5 745.846 1018.5 741.25C1018.5 736.111 1017.57 731.167 1016 726.472C1015.25 724.22 1015 722.74 1015 720.25C1015 718.21 1014 716.448 1014 714.5C1014 711.504 1012.31 710.636 1010 709.611C1007.59 708.539 1006.97 709.884 1005 710C1003.04 710.115 1001.6 712 999.5 712C996.974 712 996.166 710.073 994.5 708.5C992.655 706.758 990.658 705.784 989.389 703.5C988.127 701.228 985.271 699.084 983 697.889C980.812 696.737 978.993 695.841 976.611 694.889C974.286 693.959 972.385 691.804 969.972 691C964.182 689.07 960.892 683 954.25 683C951.548 683 948.443 683.874 945.75 684.472C944.656 684.715 943.098 685 942 685C939.964 685 940.034 686.41 938.75 687.694C937.87 688.574 933.997 690.251 932.75 690.528C930.771 690.968 929.754 693.582 927.75 694.028C925.647 694.495 924.703 698.203 923.222 699.472C922.283 700.277 920.572 702.179 919.972 703.278C917.992 706.908 914.504 709.27 912.5 712.778C911.66 714.248 909.499 715.556 908.278 716.778C907.368 717.688 905.435 720.126 904.222 720.472C901.988 721.11 896.643 723.374 895.972 725.722C895.878 726.051 894.096 727.223 893.75 727.5C892.829 728.237 891.098 729.733 890.528 730.778C889.12 733.358 887.624 736.155 886.611 738.889C885.997 740.548 884.908 742.657 885.611 744.611C886.38 746.747 890.608 748.999 892.5 750C894.376 750.993 896.544 753.378 897.722 755.111C899.782 758.14 901.88 760.018 904.5 762.5C907.289 765.142 910.319 766.964 913.5 769.111C915.026 770.141 920.5 771.255 920.5 774C920.5 776.977 918.424 778.463 916 779.889C913.851 781.153 912.414 783.88 909.75 784.472C905.857 785.337 900.931 792.04 901.75 795.806L901.77 795.897C902.47 799.116 903.588 804.263 906.722 805.972C907.693 806.502 907.383 807.553 908.5 808C909.687 808.475 911.246 809.451 912.222 810.25C913.261 811.1 913.751 812.445 914.75 813.222C915.766 814.013 916.87 813.846 918 814.25C920.147 815.017 923.26 814.5 925.5 814.5C928.997 814.5 932.804 814 936.5 814Z" fill="#C4C4C4" fill-opacity="0.01"/>
<path id="gtyouan" d="M644.722 792C649.495 792 654.144 792.713 658.873 792.942C661.79 792.81 664.656 792.5 667.75 792.5C670.197 792.5 672.796 791.823 675.111 791.111C676.43 790.705 678.256 791.047 679.556 791.25C682.172 791.659 684.858 791.5 687.5 791.5H696.5C699.298 791.5 700.347 791.051 702.806 789.75C707.973 787.015 713.925 784.834 716.75 779.75C717.631 778.165 718.847 776.875 719.75 775.25C720.602 773.716 719.5 771.638 719.5 770C719.5 769.012 718.748 766.146 718.25 765.25C717.162 763.291 716.077 760.658 714 759.389C711.987 758.158 710.849 756.589 708.5 755.75C706.894 755.177 704.888 754.538 703.611 753.389C701.836 751.791 698.936 752.947 696.806 752C695.596 751.462 698.263 747.98 699 747.611C702.236 745.993 705.683 742.927 707.722 739.722C708.975 737.754 709.939 735.493 711.111 733.5C712.068 731.873 713.549 730.655 713.972 728.75C714.762 725.197 715.836 721.16 714.222 717.472C713.293 715.348 712.656 713.09 711.611 711C711.172 710.122 710.731 709.182 710.472 708.278C710.258 707.529 708.76 707.565 708.222 707.222C706.432 706.083 704.535 704.793 702.75 704C701.213 703.317 700.354 702.185 699 701.389C697.302 700.39 695.739 698.97 693.75 698.528C690.992 697.915 688.046 697.384 685.5 696.111C681.998 694.36 678.638 692.293 676 689.5L675.947 689.444C674.414 687.821 672.978 686.3 670.778 685.5C669.305 684.964 668.579 683.351 667.5 682.889C662.438 680.719 657.291 681.227 652.75 683.75C649.253 685.693 645.247 690.084 641.25 690.972C639.223 691.423 636.739 692.563 635.222 694C632.648 696.439 630.414 697.324 627.278 698.75C623.151 700.626 618.751 699.722 614.75 701.5C611.416 702.982 608 708.488 608 712C608 714.276 607 716.521 607 718.972C607 721.726 607.343 724.331 607.5 727C607.573 728.234 608.634 729.641 609.25 730.75C610.105 732.288 610.044 734.31 610.889 736C612.537 739.297 615.45 742.393 618.611 744.5C620.284 745.615 621.735 746.677 623.5 747.611C625.605 748.725 628 747.578 628 750.25C628 753.483 621.869 753.039 620.5 754.75C619.825 755.594 616.67 756.495 615.5 757.111C612.667 758.602 610.466 761.534 608.25 763.75C605.045 766.955 605.5 769.794 605.5 774.25C605.5 777.194 608.328 782.66 610.111 784.889C610.687 785.608 611.035 786.408 611.5 787.222C611.945 788 613.116 787.857 613.778 788.278C615.957 789.665 618.167 789.656 620.611 790.111C625.27 790.978 630.307 792 635 792H644.722Z" fill="#C4C4C4" fill-opacity="0.01"/>
<path id="gtensui" d="M225.472 768.5C228.221 768.5 232.925 767.571 237.075 767.097C239.415 770.058 242.444 766.5 245.5 766.5C250.802 766.5 255.96 767 261.222 767C266.206 767 270.637 768.664 275.75 767.528C277.001 767.25 277.869 765.631 278.778 764.722C279.709 763.791 281.198 763.253 282 762.25C282.789 761.264 284.386 759.946 285.5 759.389C286.832 758.723 288.127 756.796 288.889 755.5C290.165 753.331 292.253 752.675 294.389 751.222C296.82 749.569 291.792 743.531 291 741.75C289.258 737.831 285.773 735.295 284 731.306C281.971 726.74 272.707 728 268.611 728C265.414 728 262.38 728.556 259.111 728.5C256.586 728.456 260.536 727.073 261.278 726.722C262.567 726.113 264.062 725.92 265.389 725.389C266.112 725.1 266.671 723.876 267.111 723.278C267.859 722.261 269.294 721.451 269.889 720.5C270.694 719.212 274.05 717.649 275.5 717.028C277.56 716.145 280.367 715.49 281.25 713.194C281.996 711.254 282.135 709.197 283 707.25C283.303 706.568 284 705.977 284 705.25C284 701.131 284.419 697.616 282.611 694C280.934 690.645 280.186 686.954 276.5 685.111C274.599 684.16 272.916 682.847 271 681.889C268.544 680.661 265.467 680.3 263.056 678.75C261.331 677.641 258.497 676.022 257.5 674.278C256.575 672.66 252.607 671.914 251 671.111C249.327 670.274 247.306 669.661 246 668.278C244.374 666.556 243.38 665.001 240.778 664.528C239.194 664.24 237.333 664.5 235.722 664.5C233.197 664.5 232.839 664.605 231.222 666.222C227.984 669.46 223.479 670.294 219.5 672.389C217.845 673.26 216.156 675.981 214.889 677.389C213.944 678.439 212.521 678.581 211.5 679.5C210.349 680.536 209.605 681.594 208.111 682.111C205.73 682.935 203.997 685.03 201.611 685.889C199.953 686.486 197.854 686.565 196.111 686.889C194.969 687.101 194.253 687.749 193.25 687.972C187.762 689.192 184.5 695.408 184.5 700.5C184.5 704.154 183.226 709.766 186.111 712.389C187.041 713.234 188.817 713.447 189 715C189.147 716.246 189.906 713.894 190 715.5C190.046 716.278 192.972 718.25 193.611 718.889C196.353 721.63 201.17 722.036 204.25 724.5C207.657 727.226 197.973 729.902 197 730.25C194.698 731.072 192.19 731.269 190.25 732.778C188.605 734.057 185.47 734.662 184.389 736.5C182.598 739.544 178.709 742.733 178.5 746.5C178.345 749.29 180.176 755.176 182.25 757.25C183.837 758.837 185.065 760.849 186.778 762.25C188.139 763.363 189.159 766 191.25 766C192.555 766 194.367 767.165 195.75 767.472C198.256 768.029 200.935 768.5 203.5 768.5H218.778H225.472Z" fill="#C4C4C4" fill-opacity="0.01"/>
<path id="gkantyuu" d="M488.028 990C497.819 990 507.279 991 517 991C521.962 991 524.47 992.5 529.5 992.5C531.76 992.5 535.791 993.339 537.75 992.25C538.702 991.721 541.971 991.5 543.111 991.5C551.207 991.5 558.583 987.934 564.75 983C566.107 981.915 565.885 979.505 566.889 978.389C567.728 977.457 567.645 975.867 568.222 974.778C568.818 973.652 569.5 973.545 569.5 972.25C569.5 968.323 566.859 966.753 565.5 963.694L565.411 963.495C563.79 959.844 561.666 955.06 557.472 953.75C556.125 953.329 554.564 952.991 553.167 952.75C551.358 952.438 549.293 951.59 547.5 951.5C545.742 951.412 544.396 950.5 542.5 950.5C541.311 950.5 537.158 951.157 537.75 949.5C538.411 947.65 539.775 946.126 541.5 945.111C544.106 943.578 546.139 941.28 548.611 939.5C549.591 938.795 550.568 938.292 551.389 937.389C552.103 936.603 552.146 935.535 552.972 934.778C554.904 933.007 556.605 931.435 557.389 928.889C558.523 925.204 559 922.15 559 918.25C559 915.606 556.134 914.789 554.167 913.889C550.873 912.382 548.559 909.463 545.75 907.278C543.108 905.223 538.747 902.445 537.111 899.5C535.124 895.924 528.639 895.601 526.389 892C525.859 891.152 524.397 891.024 523.611 890.5C522.443 889.721 521.568 888.586 520.25 888C518.39 887.173 516.716 887 514.722 887C509.01 887 505.105 887.532 499.972 889.778C498.653 890.355 497.284 890.228 496.028 890.778C494.776 891.326 493.601 892.586 492.5 893.389C490.192 895.073 488.641 896.804 486.722 898.722C484.237 901.208 481.211 903.695 478.5 906C475.138 908.858 469.024 906.653 465.25 908.75C460.802 911.221 458.692 916.63 458.5 921.611C458.363 925.173 457.788 930.01 460.389 932.611C462.138 934.36 463.84 935.051 465.972 936.25C467.832 937.296 469.23 938.848 471 939.889C472.627 940.846 474.114 942.457 475.25 943.972C476.806 946.048 479.778 945.799 481.389 947.611C481.983 948.28 478.385 950.387 477.75 950.528C476.111 950.892 474.717 951 472.972 951C468.681 951 464.841 951.554 461.222 953.528C457.355 955.637 452.07 957.66 449.278 961.25C441.786 970.883 449.538 981.865 457.889 987.889C462.612 991.296 468.87 990 474.5 990H488.028Z" fill="#C4C4C4" fill-opacity="0.01"/>
<path id="gseito" d="M319 1067.04C313.86 1066.97 308.47 1067.5 303.5 1067.5C298.834 1067.5 294.2 1066.5 289.5 1066.5C285.566 1066.5 281.092 1066.49 277.389 1065.39C274.263 1064.46 270.538 1060.28 268.722 1057.61C267.607 1055.97 265.229 1055.21 264.25 1053.47C263.271 1051.73 263.365 1049.96 262.111 1048.39C261.228 1047.28 261.929 1041.65 262.25 1040.5C262.787 1038.57 263.572 1036.99 264.722 1035.39C267.102 1032.08 270.925 1030.98 274.5 1029.39C276.047 1028.7 278.821 1028 280.528 1028C282.139 1028 286.598 1028.83 287.889 1027.89C289.853 1026.46 290.5 1026.88 290.5 1024.25C290.5 1023.31 291.312 1022.81 290.5 1022C289.459 1020.96 287.959 1020.58 286.611 1020.11C285.062 1019.58 284.209 1017.97 282.694 1017.5C279.931 1016.65 278.28 1015.04 276 1013.61C272.985 1011.73 272.87 1007.33 271.611 1004.5C270.394 1001.76 271.631 996.937 272.611 994.389C273.343 992.486 273.993 989.831 275.222 988.25C276.363 986.784 280.13 986.123 282 985.5C285.164 984.445 287.209 982.983 290 981.278C292.014 980.047 293.244 978.239 295.5 977.111C299.298 975.212 302.708 973.327 305 969.889C307.442 966.225 310.759 965.259 314.5 963.389C316.672 962.303 322.154 960.623 324.5 961.611C325.934 962.215 328.566 963.105 329.028 964.722C329.387 965.979 331.385 968.202 332.611 968.611C335.995 969.739 338.827 971.807 341.972 973.5C343.784 974.476 345.923 975.172 347.5 976.5C348.852 977.638 350.474 977.919 351.778 979.222C352.994 980.439 354.946 981.612 356.5 982.389C358.359 983.318 360.137 984.709 361.75 986C363.064 987.051 365.26 987.392 366.111 989C368.103 992.762 371.26 997.177 371.5 1001.5C371.755 1006.09 374.017 1009.41 370 1013C369.191 1013.72 367.911 1013.87 367.028 1014.53C366.16 1015.18 364.722 1016.74 363.694 1016.97C361.484 1017.46 359.841 1019.31 357.611 1020.11C355.301 1020.94 353.374 1022.15 350.972 1022.75C348.637 1023.33 344.495 1023.57 342.611 1025.11C342.21 1025.44 350.3 1025.95 351.194 1025.97C355.544 1026.06 359.899 1026 364.25 1026C366.355 1026 368.051 1026.89 370 1027C371.56 1027.09 373.403 1028.14 374 1029.78C375.136 1032.9 377 1036.61 377 1040C377 1042.61 380.046 1048.46 378.111 1050.61C376.735 1052.14 374.074 1053.99 372.278 1054.97C368.895 1056.82 365.792 1059.01 362.5 1060.89C358.78 1063.01 355.942 1065.5 351.5 1065.5C345.341 1065.5 339.078 1065.2 333 1065.5C330.975 1065.6 326.675 1066.84 323.216 1067.27C321.457 1067.49 319.915 1067.5 319 1067.04Z" fill="#C4C4C4" fill-opacity="0.01"/>
<path id="gkousyuu" d="M565.75 1204C568.422 1204 570.97 1204.18 573.5 1204.48C574 1205.48 578.606 1206 579.75 1206C582.321 1206 584.868 1207 587.5 1207C591.622 1207 596.184 1206.48 600.222 1205.61C603.462 1204.91 607.462 1205.5 610.778 1205.5C613.318 1205.5 615.976 1205 618.611 1205C621.015 1205 623.082 1203.96 625.25 1203C626.132 1202.61 627.358 1201.5 628.25 1201.5C628.875 1201.5 630.607 1201.24 631 1200.75C632.974 1198.28 634.331 1195.02 636.5 1192.72C637.039 1192.15 638.5 1189.14 638.5 1188.25C638.5 1184.33 637.858 1181.57 636.611 1178.11C634.902 1173.36 631.875 1170.11 626.889 1168.39C624.951 1167.72 623.008 1167.72 621.028 1167.47C619.973 1167.34 615.114 1166.02 614.5 1165.25C613.662 1164.2 602.772 1164.6 603.111 1164.11C604.62 1161.96 607.784 1161.01 610.028 1159.78C611.633 1158.89 613.344 1158.51 614.889 1157.5C615.956 1156.8 617.661 1155.57 619 1155.5C620.326 1155.43 622.617 1154.35 623.5 1153.25C624.266 1152.29 626.928 1151.3 627 1150C627.094 1148.32 628 1146.8 628 1145.19C628 1141.15 628.213 1137.04 628 1133C627.898 1131.07 626.379 1129.41 624.778 1128.5C622.9 1127.43 621.456 1125.33 619.389 1124.61C614.667 1122.98 611.499 1120.11 607.25 1117.75C603.279 1115.54 599.954 1111.04 595.722 1109.5C593.825 1108.81 591.828 1107.91 590.389 1106.61C589.2 1105.54 586.424 1102.07 585 1102C581.774 1101.83 576.053 1101.23 573.5 1103.5C572.234 1104.63 569.36 1105.78 567.75 1106.5C565.846 1107.35 563.723 1108.62 562 1109.89C559.654 1111.61 557.698 1112.8 555.5 1115C553.752 1116.75 551.122 1118.03 548.889 1118.89C546.499 1119.81 544.262 1121.24 541.806 1122C540.35 1122.45 538.017 1123.05 536.75 1123.75C533.265 1125.69 527.974 1125.6 526.75 1130.25C525.094 1136.54 526.52 1142.76 529.389 1148.5C530.325 1150.37 532.51 1152.17 532.972 1154.25C533.343 1155.92 538.251 1157.24 539.778 1158C542.004 1159.11 544.87 1159.76 546.75 1161.22C548.02 1162.21 548.384 1164.55 546.25 1165.03C545.547 1165.18 544.214 1165.81 543.5 1166.11C542.519 1166.52 541.415 1166.2 540.5 1166.61C538.257 1167.61 536.056 1167.52 533.75 1168.03C529.993 1168.86 526.423 1173.58 523.75 1176.25C520.758 1179.24 522.519 1182.94 523.472 1186.28C524.48 1189.8 526.862 1192.7 528.611 1196C529.726 1198.11 531.6 1199 533 1200.75C533.75 1201.69 535.957 1201.87 536.889 1202.61C539.338 1204.57 547.175 1204.91 550.194 1203.75C554.76 1201.99 561.021 1204 565.75 1204Z" fill="#C4C4C4" fill-opacity="0.01"/>
<path id="gzyouyou" d="M899.5 1054.5C905.312 1054.5 911.205 1054.97 916.897 1055C917.983 1055.1 919.142 1055 920.25 1055C922.069 1055 923.387 1055.5 925.25 1055.5C929.404 1055.5 933.298 1055 937.5 1055H944.75C946.389 1055 949.33 1055.54 950.75 1054.75C951.586 1054.29 952.594 1054.37 953.5 1053.89C954.791 1053.21 955.949 1052.08 957.25 1051.5C958.717 1050.85 960.209 1049.61 961.75 1048.75C963.82 1047.6 965.978 1047.08 968 1045.89C968.972 1045.32 969.81 1044.01 970.75 1043.28C971.791 1042.47 973.637 1042.73 974.389 1041.5C975.144 1040.26 978.555 1038 977.889 1036.5C977.169 1034.88 976.709 1032.76 975.611 1031.39C975.202 1030.88 975.237 1029.24 974.889 1028.5C974.308 1027.27 974.09 1026.04 973.75 1024.75C973.038 1022.05 971.714 1020.71 969.75 1018.75C968.301 1017.3 965.689 1016.52 963.778 1015.97C961.6 1015.35 960.481 1014 958 1014C949.476 1014 958.138 1009.34 960.611 1007.11C962.47 1005.44 964.363 1003.32 966.278 1001.75C968.039 1000.31 969.584 998.333 971.25 997C974.162 994.67 974 990.365 974 987C974 982.549 973.906 976.538 972.111 972.5C969.99 967.727 964.063 966.744 960.25 963.778C958.909 962.735 956.334 962.13 954.75 961.25C952.545 960.025 949.62 959.814 947.278 958.75C943.367 956.973 940.956 954.956 938 952C936.891 950.891 934.667 948.685 933 948.5C931.608 948.345 928.786 947.46 927.5 946.889C925.787 946.127 923.578 945 921.75 945C920.085 945 917.185 943.953 915.75 944.75C914.873 945.237 913.247 945.251 912.25 945.472C911.26 945.692 910.425 946.173 909.5 946.611C907.214 947.694 905.021 948.962 902.611 949.889C900.074 950.865 896.49 952.151 894.75 954.278C893.318 956.028 890.681 958.503 888.444 959C885.3 959.699 881.659 960.878 878.778 962.222C876.565 963.255 874.353 962.052 872.278 963.75C870.738 965.01 869.461 967.705 868.615 969.491L868.611 969.5C867.53 971.783 866 973.996 866 976.611C866 978.725 866.5 980.819 866.5 983C866.5 985.099 865.946 988.114 866.889 990C870.872 997.966 879.768 1003.38 887.5 1007.25C889.588 1008.29 900.893 1011.27 895 1013.89C892.684 1014.92 887.481 1014 884.944 1014C881.592 1014 878.472 1014.03 875.25 1014.53C872.919 1014.89 871.04 1017.04 869 1018.11C866.676 1019.33 865.767 1020.13 864 1022C860.313 1025.9 861.561 1030.89 863.389 1035C865.075 1038.79 865.029 1043.91 869.25 1046.25C872.085 1047.82 874.447 1050.41 877.222 1052C878.874 1052.94 880.873 1053.13 882.778 1053.47C888.329 1054.48 893.773 1054.5 899.5 1054.5Z" fill="#C4C4C4" fill-opacity="0.01"/>
<path id="gtyousa" d="M924.389 1271.5C928.253 1271.5 932.216 1272.47 936.168 1272.86C937.514 1275.01 943.794 1274.5 945.972 1274.5H955.5C959.205 1274.5 962.79 1273.81 966.472 1273.53C970.421 1273.22 975.915 1273.51 979.5 1271.61C981.666 1270.46 983.844 1269.49 985.889 1268C987.403 1266.89 988.131 1264.65 989.75 1263.75C992.904 1262 997 1258.52 997 1254.5C997 1252.89 996 1251.31 996 1249.5C996 1248.66 996.497 1245.1 995.75 1244.5C995.071 1243.96 994.389 1240.74 993.778 1239.78C992.958 1238.49 991.128 1237.12 989.889 1236.11C988.281 1234.8 984.892 1234.2 983 1233.72C980.697 1233.14 977.932 1233.09 975.75 1232.25C975.099 1232 974.407 1231.5 973.722 1231.5C971.973 1231.5 964.193 1232.51 965.5 1230.22C966.408 1228.63 967.905 1226.77 969.5 1225.89C973.152 1223.86 977.782 1222.41 980.972 1219.75C981.589 1219.24 982.303 1218.5 983 1218.11C984.084 1217.51 984.114 1216.44 985.028 1215.75C986.68 1214.51 986.532 1212.59 987.611 1211.11C988.54 1209.83 988.674 1201.97 987.722 1200.75C986.621 1199.33 986.559 1197.61 985.222 1196.28C982.939 1193.99 980.641 1191.85 977.611 1190.5C973.414 1188.63 970.464 1185 966.472 1182.75C963.852 1181.28 961.411 1179.48 958.778 1177.97C956.315 1176.57 953.522 1176.58 951 1175.39C949.595 1174.72 947.716 1174.41 946.889 1173C945.913 1171.34 944.68 1170.28 942.972 1169.75C940.653 1169.03 933.951 1168.77 932 1170.5C930.582 1171.76 928.602 1172.35 927.111 1173.5C924.916 1175.19 923.22 1177.72 921.278 1179.67C918.949 1182 915.55 1183.56 912.889 1185.5C910.122 1187.52 907.421 1190.57 904 1191.61C901.521 1192.37 896.182 1192.37 894.278 1194.28C893.042 1195.51 892.406 1198.4 892 1200.03C891.568 1201.76 890.243 1203.88 889.389 1205.5C887.29 1209.49 889.262 1214.16 891.528 1217.75L891.574 1217.82C892.386 1219.11 893.653 1221.12 895.25 1221.47C896.485 1221.75 897.407 1223.37 898.5 1223.5C901.108 1223.81 907.579 1225.51 908.889 1228C909.675 1229.49 908.725 1231.25 907.222 1231.53C905.276 1231.88 903.391 1232.22 901.5 1232.75C898.505 1233.58 895.382 1232.95 892.5 1234.39C890.061 1235.61 887.045 1235.88 885.111 1237.89C884.147 1238.89 883.04 1240.16 882.25 1241.31C881.575 1242.28 879.925 1243.21 879.556 1244.22C877.929 1248.69 879.754 1251.07 880 1255.5C880.156 1258.31 884.295 1262.71 886 1264.78C889.62 1269.17 893.789 1270.29 899.389 1270.5C903.176 1270.64 906.885 1271 910.778 1271C915.347 1271 919.815 1271.5 924.389 1271.5Z" fill="#C4C4C4" fill-opacity="0.01"/>
<path id="groukou" d="M1179.89 1036.11C1186.58 1037.36 1194.11 1036.69 1201 1036.53C1209.78 1036.53 1218.8 1035.5 1227.89 1035.5C1230.06 1035.5 1233.85 1036.31 1235.75 1035.25C1236.66 1034.74 1238.69 1034.21 1239.75 1033.97C1243.49 1033.14 1246.79 1031.04 1250.25 1029.5C1255.81 1027.03 1262.5 1022.33 1262.5 1015C1262.5 1012.67 1261.28 1011.42 1260.5 1009.28C1260.02 1007.95 1259.22 1005.28 1258.22 1004.28C1255.43 1001.49 1251.92 998 1247.28 998C1244.24 998 1236.76 999.055 1234.83 995.722C1234.56 995.256 1237.23 991.565 1237.61 991.389C1239.32 990.605 1240.91 988.424 1242.47 987.25C1244.07 986.054 1245.9 985.244 1247.5 984C1250.59 981.596 1253 978.61 1253 974.5C1253 971.141 1253.28 966.486 1251 963.778C1248.7 961.041 1247.72 956.75 1243.97 955.5C1239.76 954.096 1236.75 950.278 1232.75 948.5C1230.03 947.293 1227.88 945.303 1225.28 944C1223.04 942.879 1220.75 941.863 1218.67 940.5C1216.94 939.372 1214.84 938.811 1213 937.889C1210.82 936.797 1209.25 935.51 1207 934.611C1204 933.409 1199.69 935.096 1196.97 936C1192.2 937.591 1189.76 942.599 1185.11 944.389C1183.17 945.135 1181.67 947.145 1179.75 948C1177.93 948.808 1176.03 949.263 1174.25 950.25C1171 952.058 1167.71 954.464 1164.25 956C1161.91 957.04 1160.11 958.278 1157.61 959.111C1155.46 959.827 1154.17 960.856 1153.39 962.889C1152.16 966.083 1151.58 971.922 1152.61 975.389C1153.16 977.249 1153 979.106 1154.28 980.75C1155.15 981.872 1157.26 984.416 1158.28 985C1159.97 985.965 1160.66 987.36 1162.5 988.278C1163.56 988.807 1164.37 989.438 1165.5 989.889C1166.35 990.229 1167.8 989.998 1168.47 990.778C1169.35 991.801 1169.37 995.31 1168.5 996.278C1167.57 997.317 1165.15 997.5 1163.89 997.5C1160.38 997.5 1155.07 997.896 1152.25 1000.28C1148.47 1003.47 1144.54 1006.09 1144 1011.5C1143.88 1012.7 1143 1013.47 1143 1014.72V1017.89C1143 1019.87 1143.02 1020.69 1144.5 1022C1145.83 1023.19 1147.43 1024.07 1148.53 1025.53C1149.78 1027.19 1150.5 1029.11 1151.78 1030.75C1154.1 1033.74 1159.19 1034.18 1162.75 1034.97C1168.36 1036.22 1174.29 1035.07 1179.89 1036.11Z" fill="#C4C4C4" fill-opacity="0.01"/>
<path id="gsyouhai" d="M1632.39 841.5C1639.54 841.5 1646.78 841.922 1654 842.224C1658.92 842.224 1668.83 842 1673.75 842C1676.32 842 1678.77 843 1681.5 843H1689.75C1695.05 843 1699.16 841.022 1703.5 838.611C1704.96 837.803 1707.68 837.357 1708.61 836C1709.36 834.908 1711.77 833.292 1713 832.611C1720.73 828.314 1717.46 818.828 1714 812.778C1710.02 805.807 1701.93 804.329 1694.78 803.028C1693.64 802.821 1689.55 802.823 1689.5 801.611C1689.43 799.911 1690.82 798.677 1692 797.5C1693.87 795.631 1695.77 794.215 1697.89 792.722L1697.94 792.685C1698.79 792.088 1701.43 790.229 1701.89 789.5C1702.56 788.422 1705.82 787.55 1706 786C1706.23 784.061 1707.5 782.614 1707.5 780.5C1707.5 779.004 1708.42 777.342 1708.5 776C1708.6 774.345 1708.17 772.91 1708 771.5C1707.94 770.956 1705.95 767.162 1705.75 767C1704.51 766.009 1703.56 764.741 1702.25 763.722C1700.81 762.601 1698.92 761.676 1697.25 760.75C1694.93 759.459 1692.65 757.321 1690.28 756.306C1685.17 754.118 1681.6 751.158 1677.25 747.778C1676 746.808 1674.5 746.002 1673.5 744.75C1672.52 743.524 1670.17 742.387 1669.5 741.222C1668.38 739.267 1659.75 737.947 1658 739.5C1655.23 741.967 1652.16 743.394 1649.39 745.889C1645.45 749.435 1640.68 752.44 1636.22 755.278C1631.05 758.567 1626.32 763.186 1620.03 763.972C1613.83 764.746 1614.07 768.885 1611.89 773.5C1611.25 774.854 1609.59 777.459 1609.5 779C1609.39 781.062 1609.56 784.478 1611 786C1611.69 786.731 1613.19 786.768 1614.11 787.111C1615.23 787.524 1616.62 788.559 1617.61 789.222C1619.38 790.403 1621.95 791.541 1623.5 793C1626.52 795.85 1630.45 798.993 1634.5 799.5C1637.26 799.845 1632.85 801.368 1632.28 801.472C1630.01 801.884 1627.9 803.077 1625.72 803.472C1624.51 803.693 1623.74 804.369 1622.47 804.528C1620.57 804.765 1618.58 804.938 1616.75 805.5C1615.39 805.919 1611.15 806.644 1610.5 807.778C1608.38 811.487 1603 813.539 1603 818.25C1603 820.804 1603.04 826.733 1605.25 828.5C1606.85 829.782 1607.89 831.951 1609.39 833.389C1611.39 835.316 1613.61 837.002 1615.5 839C1618.7 842.385 1628.14 841.5 1632.39 841.5Z" fill="#C4C4C4" fill-opacity="0.01"/>
<path id="gkengyou" d="M1434.75 1000C1440.01 1000 1445.21 1000.45 1450.42 1000.75C1454.91 1000.75 1461.12 1000.83 1465.61 1001C1469.8 1001.16 1474.71 1002.32 1478.81 1000.75C1480.69 1000.02 1484.99 1000 1487 1000C1489.67 1000 1491.38 999.555 1493.75 999.028C1497.62 998.167 1501.35 997.837 1505.11 996.389C1509.1 994.853 1510.54 990.554 1514 988.389C1517.41 986.257 1519.27 980.892 1517.25 977.25C1515.66 974.396 1513.84 971.616 1512.25 968.75C1510.16 964.981 1506.32 964.204 1503.28 961.5C1500.52 959.052 1494.49 960 1491.11 960C1489.2 960 1487.38 959.5 1485.5 959.5C1484.97 959.5 1485.85 958.872 1486.11 958.611C1487.03 957.687 1489.01 956.838 1490.25 956.25C1492.03 955.407 1494.24 954.827 1495.5 953.25C1496.21 952.359 1498.3 950.424 1499.25 950C1502.5 948.554 1506.5 943.369 1506.5 940C1506.5 938.281 1505.55 936.485 1505.5 934.778C1505.45 932.857 1505.38 927.566 1503.5 926.389C1500.37 924.434 1496.86 922.655 1493.47 920.75C1490.67 919.175 1488.78 916.907 1486.22 915.278C1483.99 913.858 1481.34 912.906 1479.25 911.278C1476.12 908.841 1471.2 906.559 1469.11 903C1464.58 895.293 1456.84 897.571 1450.25 900.5C1446.37 902.227 1445.46 907.229 1442.25 909.722C1438.87 912.35 1434.66 913.986 1430.61 915.389C1428.28 916.196 1426.57 918.237 1424.5 919.389C1421.61 920.993 1418.39 921.514 1415.5 923C1411.77 924.917 1408 927.495 1408 931.75C1408 933.895 1406.76 941.908 1408.75 943.5C1410.44 944.848 1411.84 946.569 1413.47 948C1415.14 949.458 1415.54 952.871 1418 953C1420.48 953.131 1423.28 954.187 1425.78 954.611C1426.58 954.747 1428.01 954.832 1428.39 955.722C1428.86 956.831 1428.66 958.959 1428.11 960C1427.65 960.863 1426.35 960.422 1425.5 960.611C1422.97 961.173 1419.92 960.643 1417.5 961.611C1415.62 962.363 1414.12 962.808 1412 963.25C1406.89 964.315 1403.69 965.614 1400.72 970.278C1397.96 974.621 1396.47 977.443 1399 982.5C1401.06 986.625 1404.44 989.195 1407 992.889C1410.17 997.461 1415.48 996.69 1420.5 997.528C1421.52 997.697 1425.86 998.449 1426.5 999.25C1426.98 999.844 1428.52 999.429 1429.22 999.75C1430.74 1000.44 1433.1 1000 1434.75 1000Z" fill="#C4C4C4" fill-opacity="0.01"/>
<path id="ggogun" d="M1558.39 1141C1564.74 1141 1571 1141.45 1577.28 1141.75C1580.87 1141.75 1587.5 1141.5 1591.25 1141.5C1595.47 1141.5 1599.59 1142 1603.75 1142C1612.23 1142 1620.02 1139 1628.39 1139C1630.29 1139 1631.35 1137.93 1633 1137.11L1633.01 1137.11C1634.3 1136.46 1637.33 1134.94 1638 1133.78C1639.16 1131.75 1642.58 1131.16 1644 1129.11C1645.29 1127.25 1645 1125.51 1645 1123.25C1645 1120.21 1641.5 1115.64 1640.11 1113C1638.99 1110.87 1636.59 1108.94 1635.97 1106.78C1635.52 1105.18 1631.25 1105.45 1630 1104.89C1627.59 1103.82 1624.39 1104.39 1622 1103.39C1620.23 1102.64 1618.01 1102 1616.17 1102C1614.41 1102 1609.64 1103.13 1610.89 1101.89C1611.48 1101.29 1612.27 1100.55 1613 1100.11C1614.86 1098.97 1616.31 1096.74 1618.53 1096C1621.16 1095.12 1622.87 1092.34 1625.22 1091C1627.14 1089.9 1630.06 1087.99 1631.11 1086C1632.61 1083.16 1631.16 1078.44 1631 1075.5C1630.74 1070.74 1631.14 1067.49 1626.78 1065C1625.57 1064.31 1624.91 1062.91 1623.61 1062.39C1622.62 1061.99 1621.32 1060.73 1620.5 1060C1619.09 1058.74 1617.62 1058.12 1616.25 1056.75C1613.2 1053.7 1609.18 1051.85 1606 1049C1602.82 1046.15 1598.54 1044.87 1595.5 1042C1593.31 1039.94 1590.02 1034.96 1586.28 1036.03C1584.78 1036.46 1583.83 1037.91 1582 1038C1580.06 1038.1 1578.87 1039.07 1577.28 1039.53C1576.53 1039.74 1575.02 1042.98 1574.25 1043.75C1572.93 1045.07 1571.36 1046.22 1570.11 1047.61C1567.24 1050.8 1564.06 1055.01 1559.89 1056.61C1554.22 1058.79 1549.84 1062.68 1543.75 1064.03C1539.82 1064.9 1538.57 1070.9 1536.78 1073.72C1534.61 1077.13 1533 1080.21 1534.39 1084.39C1535.79 1088.59 1539.65 1091.56 1543.39 1094C1545.14 1095.15 1553.5 1098.14 1553.5 1100.25C1553.5 1104.17 1546.84 1103.56 1544.22 1104.75C1541.92 1105.79 1539.17 1105.33 1537.25 1107.25C1535.88 1108.62 1533.8 1109.28 1532.5 1110.5C1531.41 1111.53 1529.85 1111.71 1528.81 1112.75C1528.24 1113.32 1527.91 1113.97 1527.25 1114.5C1525.81 1115.65 1526.5 1119.31 1526.5 1121C1526.5 1125.16 1530.45 1128.45 1531.53 1132.22C1531.73 1132.93 1535.13 1135.6 1536 1136.11C1538.05 1137.32 1540.56 1138.84 1542.78 1139.47C1545.07 1140.13 1547.9 1139.51 1550.25 1140.03C1552.82 1140.6 1555.73 1141 1558.39 1141Z" fill="#C4C4C4" fill-opacity="0.01"/>
</g>
</svg>
